<?xml version="1.0" encoding="UTF-8" standalone="no"?>
<!-- Generator: Adobe Illustrator 16.0.0, SVG Export Plug-In . SVG Version: 6.00 Build 0)  -->

<svg
   xmlns:dc="http://purl.org/dc/elements/1.1/"
   xmlns:cc="http://creativecommons.org/ns#"
   xmlns:rdf="http://www.w3.org/1999/02/22-rdf-syntax-ns#"
   xmlns:svg="http://www.w3.org/2000/svg"
   xmlns="http://www.w3.org/2000/svg"
   xmlns:sodipodi="http://sodipodi.sourceforge.net/DTD/sodipodi-0.dtd"
   xmlns:inkscape="http://www.inkscape.org/namespaces/inkscape"
   version="1.1"
   id="Capa_1"
   x="0px"
   y="0px"
   width="30"
   height="30"
   viewBox="0 0 29.999999 29.999999"
   xml:space="preserve"
   inkscape:version="0.91 r13725"
   sodipodi:docname="scholarships.svg"><metadata
     id="metadata4262"><rdf:RDF><cc:Work
         rdf:about=""><dc:format>image/svg+xml</dc:format><dc:type
           rdf:resource="http://purl.org/dc/dcmitype/StillImage" /><dc:title></dc:title></cc:Work></rdf:RDF></metadata><defs
     id="defs4260" /><sodipodi:namedview
     pagecolor="#ffffff"
     bordercolor="#666666"
     borderopacity="1"
     objecttolerance="10"
     gridtolerance="10"
     guidetolerance="10"
     inkscape:pageopacity="0"
     inkscape:pageshadow="2"
     inkscape:window-width="1855"
     inkscape:window-height="1056"
     id="namedview4258"
     showgrid="false"
     fit-margin-top="0"
     fit-margin-left="0"
     fit-margin-right="0"
     fit-margin-bottom="0"
     showguides="false"
     inkscape:zoom="18.371296"
     inkscape:cx="21.834821"
     inkscape:cy="12.47212"
     inkscape:window-x="65"
     inkscape:window-y="24"
     inkscape:window-maximized="1"
     inkscape:current-layer="Capa_1" /><path
     style="fill:#000000;fill-opacity:1;stroke:none;stroke-width:0;stroke-miterlimit:4;stroke-dasharray:none;stroke-opacity:1"
     d="M 15 0 C 6.7157272 1.1045694e-06 1.1045694e-06 6.7157272 0 15 C 1.1045694e-06 23.284273 6.7157272 29.999999 15 30 C 23.284273 29.999999 29.999999 23.284273 30 15 C 29.999999 6.7157272 23.284273 1.1045694e-06 15 0 z M 15.279297 7.7363281 L 25.28125 10.888672 L 15.251953 16.994141 L 5.25 10.933594 L 15.279297 7.7363281 z M 14.994141 8.7109375 C 14.768707 8.7109375 14.583984 8.8957012 14.583984 9.1210938 L 14.583984 10.072266 C 14.022429 10.256678 13.673666 10.809505 13.759766 11.416016 C 13.813036 12.026624 14.354339 12.505284 15.001953 12.517578 C 15.235583 12.538068 15.404332 12.694146 15.445312 12.927734 C 15.453513 13.128539 15.308842 13.32115 15.095703 13.386719 C 14.862074 13.460479 14.607357 13.374629 14.484375 13.173828 C 14.365491 12.98122 14.112571 12.923934 13.919922 13.046875 C 13.727273 13.165718 13.670027 13.420673 13.792969 13.613281 C 13.977422 13.90834 14.264063 14.105347 14.587891 14.191406 L 14.587891 15.095703 C 14.587891 15.321096 14.772614 15.505859 14.998047 15.505859 C 15.22348 15.505859 15.408203 15.321096 15.408203 15.095703 L 15.408203 14.150391 C 15.957464 13.945488 16.312698 13.411233 16.267578 12.845703 C 16.267578 12.837503 16.267764 12.826549 16.263672 12.818359 C 16.169412 12.199555 15.695099 11.752302 15.076172 11.703125 L 15.072266 11.703125 L 15.0625 11.703125 L 15.046875 11.703125 L 15.03125 11.703125 C 14.797621 11.703125 14.59647 11.542601 14.580078 11.341797 C 14.580078 11.333597 14.580264 11.322643 14.576172 11.314453 C 14.547482 11.125943 14.648762 10.895071 14.890625 10.841797 C 14.902915 10.837697 14.915444 10.838084 14.927734 10.833984 C 15.132678 10.768414 15.379738 10.892374 15.486328 11.105469 C 15.584718 11.310371 15.830213 11.391516 16.035156 11.289062 C 16.240099 11.190712 16.321201 10.945137 16.21875 10.740234 C 16.046591 10.395999 15.748614 10.149326 15.404297 10.046875 L 15.404297 9.1210938 C 15.404297 8.8957012 15.219574 8.7109375 14.994141 8.7109375 z M 5.1445312 11.363281 L 5.8554688 11.875 L 5.8554688 13.224609 L 5.8554688 13.582031 L 7.25 15.363281 C 7.300033 15.427609 7.3261719 15.505361 7.3261719 15.583984 L 7.3261719 19.308594 C 7.3261719 19.505152 7.1633909 19.666016 6.9667969 19.666016 L 4.0039062 19.666016 C 3.8073122 19.666016 3.6464844 19.505152 3.6464844 19.308594 L 3.6464844 15.580078 C 3.6464844 15.501455 3.6765295 15.423703 3.7265625 15.359375 L 5.1445312 13.578125 L 5.1445312 13.414062 L 5.1445312 11.363281 z M 8.8183594 13.798828 L 15.201172 17.679688 L 21.708984 13.798828 L 22.240234 16.869141 C 22.305214 17.240354 22.347656 17.364754 22.347656 17.490234 C 22.347656 18.661386 16.37039 22.263672 14.732422 22.263672 C 13.095948 22.263672 8.1816406 18.660639 8.1816406 17.490234 C 8.1816406 17.356538 8.2245966 17.22463 8.3007812 17.097656 C 8.2955512 17.102856 8.2893504 17.106858 8.2871094 17.111328 L 8.8183594 13.798828 z M 5.5058594 14.283203 L 4.3691406 15.708984 L 4.3691406 18.951172 L 6.6171875 18.951172 L 6.6171875 15.705078 L 5.5058594 14.283203 z M 5.5058594 15.191406 C 5.7024534 15.191406 5.8671875 15.358836 5.8671875 15.583984 C 5.8671875 15.780543 5.7024534 15.949219 5.5058594 15.949219 C 5.2842488 15.949219 5.1191406 15.780543 5.1191406 15.583984 C 5.1191406 15.358836 5.2878226 15.191406 5.5058594 15.191406 z "
     id="path4264" /><g
     id="g4590"
     transform="matrix(0.74690725,0,0,0.74690725,4.7191952,4.7195686)"
     style="fill:#ffffff"><g
       id="g4550"
       style="fill:#ffffff" /><g
       id="g4554"
       style="fill:#ffffff" /><g
       id="g4556"
       style="fill:#ffffff" /><g
       id="g4558"
       style="fill:#ffffff" /><g
       id="g4560"
       style="fill:#ffffff" /><g
       id="g4562"
       style="fill:#ffffff" /><g
       id="g4564"
       style="fill:#ffffff" /><g
       id="g4566"
       style="fill:#ffffff" /><g
       id="g4568"
       style="fill:#ffffff" /><g
       id="g4570"
       style="fill:#ffffff" /><g
       id="g4572"
       style="fill:#ffffff" /><g
       id="g4574"
       style="fill:#ffffff" /><g
       id="g4576"
       style="fill:#ffffff" /><g
       id="g4578"
       style="fill:#ffffff" /><g
       id="g4580"
       style="fill:#ffffff" /><g
       id="g4582"
       style="fill:#ffffff" /></g><g
     id="g4220"
     transform="matrix(0.02537669,0,0,0.02537669,4.8445142,4.8444517)"
     style="fill:#ffffff" /><g
     id="g4228"
     transform="translate(0.97978878,-691.60692)" /><g
     id="g4230"
     transform="translate(0.97978878,-691.60692)" /><g
     id="g4232"
     transform="translate(0.97978878,-691.60692)" /><g
     id="g4234"
     transform="translate(0.97978878,-691.60692)" /><g
     id="g4236"
     transform="translate(0.97978878,-691.60692)" /><g
     id="g4238"
     transform="translate(0.97978878,-691.60692)" /><g
     id="g4240"
     transform="translate(0.97978878,-691.60692)" /><g
     id="g4242"
     transform="translate(0.97978878,-691.60692)" /><g
     id="g4244"
     transform="translate(0.97978878,-691.60692)" /><g
     id="g4246"
     transform="translate(0.97978878,-691.60692)" /><g
     id="g4248"
     transform="translate(0.97978878,-691.60692)" /><g
     id="g4250"
     transform="translate(0.97978878,-691.60692)" /><g
     id="g4252"
     transform="translate(0.97978878,-691.60692)" /><g
     id="g4254"
     transform="translate(0.97978878,-691.60692)" /><g
     id="g4256"
     transform="translate(0.97978878,-691.60692)" /><g
     id="g4445"
     transform="matrix(0.04098043,0,0,0.04098043,5.3768167,-13.448812)"
     style="fill:#00ff00"><g
       id="g4397"
       transform="translate(0,-540.36)"
       style="fill:#00ff00"><g
         id="g4399"
         style="fill:#00ff00"><g
           id="g4401"
           style="fill:#00ff00" /></g></g><g
       id="g4409"
       style="fill:#00ff00" /><g
       id="g4411"
       style="fill:#00ff00" /><g
       id="g4413"
       style="fill:#00ff00" /><g
       id="g4415"
       style="fill:#00ff00" /><g
       id="g4417"
       style="fill:#00ff00" /><g
       id="g4419"
       style="fill:#00ff00" /><g
       id="g4421"
       style="fill:#00ff00" /><g
       id="g4423"
       style="fill:#00ff00" /><g
       id="g4425"
       style="fill:#00ff00" /><g
       id="g4427"
       style="fill:#00ff00" /><g
       id="g4429"
       style="fill:#00ff00" /><g
       id="g4431"
       style="fill:#00ff00" /><g
       id="g4433"
       style="fill:#00ff00" /><g
       id="g4435"
       style="fill:#00ff00" /><g
       id="g4437"
       style="fill:#00ff00" /></g><g
     id="g4904"
     transform="matrix(0.03573787,0,0,0.03573787,3.6470568,4.1013519)"
     style="fill:#ffffff"><g
       id="g4856"
       transform="translate(0,-540.36)"
       style="fill:#ffffff"><g
         id="g4858"
         style="fill:#ffffff"><g
           id="g4860"
           style="fill:#ffffff" /></g></g><g
       id="g4868"
       style="fill:#ffffff" /><g
       id="g4870"
       style="fill:#ffffff" /><g
       id="g4872"
       style="fill:#ffffff" /><g
       id="g4874"
       style="fill:#ffffff" /><g
       id="g4876"
       style="fill:#ffffff" /><g
       id="g4878"
       style="fill:#ffffff" /><g
       id="g4880"
       style="fill:#ffffff" /><g
       id="g4882"
       style="fill:#ffffff" /><g
       id="g4884"
       style="fill:#ffffff" /><g
       id="g4886"
       style="fill:#ffffff" /><g
       id="g4888"
       style="fill:#ffffff" /><g
       id="g4890"
       style="fill:#ffffff" /><g
       id="g4892"
       style="fill:#ffffff" /><g
       id="g4894"
       style="fill:#ffffff" /><g
       id="g4896"
       style="fill:#ffffff" /></g></svg>
