<?xml version="1.0" encoding="iso-8859-1"?>
<!-- Generator: Adobe Illustrator 19.0.0, SVG Export Plug-In . SVG Version: 6.00 Build 0)  -->
<svg version="1.1" id="Layer_1" xmlns="http://www.w3.org/2000/svg" xmlns:xlink="http://www.w3.org/1999/xlink" x="0px" y="0px"
	 viewBox="0 0 485 485" style="enable-background:new 0 0 485 485;" xml:space="preserve">
<g transform="translate(0 -540.36)">
	<g>
		<g>
			<path d="M481.599,707.26L481.599,707.26c-6.001-4.8-146.43-117.4-233.448-117.4S20.704,702.46,14.703,707.26
				c-2.3,1.9-3.701,4.8-3.701,7.8s1.4,5.9,3.701,7.8c1.5,1.2,11.602,9.3,27.206,20.7v57.4v4.6L2.2,855.36
				c-1.4,1.8-2.201,4-2.201,6.2v104.3c0,5.5,4.501,10,10.002,10h82.917c5.501,0,10.002-4.5,10.002-10v-104.2c0-2.2-0.7-4.4-2.1-6.2
				l-39.008-49.8v-10v-37.8c15.203,10.5,33.007,22.2,52.111,33.4v118.2c0,4,2.3,7.5,5.901,9.1c3.201,1.4,79.816,35.3,123.225,36.1
				c1.1,0,2.1,0.1,3.201,0.1c50.21,0,135.828-34.5,139.529-36.1c3.801-1.5,6.201-5.2,6.201-9.3v-124.2
				c48.11-29.3,86.318-59.9,89.318-62.4c2.401-1.9,3.701-4.8,3.701-7.8S483.9,709.16,481.599,707.26z M83.117,865.06v90.8v0H20.204
				v-90.7l31.807-39.9L83.117,865.06z M372.377,902.66l-0.1,0c-21.004,8.1-90.019,33.3-128.426,32.1h-0.1
				c-32.907-0.6-90.919-24-109.523-31.9v-100.4c38.708,20.9,80.417,37.8,114.023,37.8c36.608,0,82.617-19.9,124.126-43.3V902.66z
				 M248.151,820.26c-67.514,0-177.337-79.7-210.843-105.2c33.507-25.5,143.33-105.2,210.843-105.2s177.337,79.7,210.843,105.2
				C425.488,740.66,315.665,820.26,248.151,820.26z"/>
			<path d="M41.208,861.66c0,5.5,4.601,10.2,10.802,10.2c5.501,0,10.102-4.7,10.102-10.2c0-6.3-4.601-11-10.102-11
				C45.909,850.66,41.208,855.36,41.208,861.66z"/>
			<path d="M237.949,642.16v23.2c-13.703,4.5-22.205,18-20.104,32.8c1.3,14.9,14.503,26.6,30.306,26.9
				c5.701,0.5,9.802,4.3,10.802,10c0.2,4.9-3.301,9.6-8.502,11.2c-5.701,1.8-11.902-0.3-14.903-5.2c-2.901-4.7-9.102-6.1-13.803-3.1
				c-4.701,2.9-6.101,9.1-3.101,13.8c4.501,7.2,11.502,12,19.404,14.1v22.1c0,5.5,4.501,10,10.002,10c5.501,0,10.002-4.5,10.002-10
				v-23.1c13.403-5,22.105-18,21.004-31.8l0,0c0-0.2,0-0.5-0.1-0.7c-2.3-15.1-13.903-26-29.006-27.2h-0.1c-0.1,0-0.2,0-0.2,0
				c-0.1,0-0.2,0-0.4,0c-0.1,0-0.2,0-0.4,0c-5.701,0-10.602-3.9-11.002-8.8c0-0.2,0-0.5-0.1-0.7c-0.7-4.6,1.8-10.2,7.702-11.5
				c0.3-0.1,0.6-0.1,0.9-0.2c5.001-1.6,11.002,1.4,13.603,6.6c2.401,5,8.402,7,13.403,4.5c5.001-2.4,7.001-8.4,4.501-13.4
				c-4.201-8.4-11.502-14.4-19.904-16.9v-22.6c0-5.5-4.501-10-10.002-10C242.45,632.16,237.949,636.66,237.949,642.16z"/>
		</g>
	</g>
</g>
<g>
</g>
<g>
</g>
<g>
</g>
<g>
</g>
<g>
</g>
<g>
</g>
<g>
</g>
<g>
</g>
<g>
</g>
<g>
</g>
<g>
</g>
<g>
</g>
<g>
</g>
<g>
</g>
<g>
</g>
</svg>
