<?xml version="1.0" encoding="UTF-8" standalone="no"?>
<!-- Generator: Adobe Illustrator 16.0.0, SVG Export Plug-In . SVG Version: 6.00 Build 0)  -->

<svg
   xmlns:dc="http://purl.org/dc/elements/1.1/"
   xmlns:cc="http://creativecommons.org/ns#"
   xmlns:rdf="http://www.w3.org/1999/02/22-rdf-syntax-ns#"
   xmlns:svg="http://www.w3.org/2000/svg"
   xmlns="http://www.w3.org/2000/svg"
   xmlns:sodipodi="http://sodipodi.sourceforge.net/DTD/sodipodi-0.dtd"
   xmlns:inkscape="http://www.inkscape.org/namespaces/inkscape"
   version="1.1"
   id="Capa_1"
   x="0px"
   y="0px"
   width="30"
   height="30"
   viewBox="0 0 29.999999 29.999999"
   xml:space="preserve"
   inkscape:version="0.91 r13725"
   sodipodi:docname="school.svg"><metadata
     id="metadata4262"><rdf:RDF><cc:Work
         rdf:about=""><dc:format>image/svg+xml</dc:format><dc:type
           rdf:resource="http://purl.org/dc/dcmitype/StillImage" /><dc:title></dc:title></cc:Work></rdf:RDF></metadata><defs
     id="defs4260" /><sodipodi:namedview
     pagecolor="#ffffff"
     bordercolor="#666666"
     borderopacity="1"
     objecttolerance="10"
     gridtolerance="10"
     guidetolerance="10"
     inkscape:pageopacity="0"
     inkscape:pageshadow="2"
     inkscape:window-width="1855"
     inkscape:window-height="1056"
     id="namedview4258"
     showgrid="false"
     fit-margin-top="0"
     fit-margin-left="0"
     fit-margin-right="0"
     fit-margin-bottom="0"
     showguides="false"
     inkscape:zoom="12.990468"
     inkscape:cx="36.078255"
     inkscape:cy="4.6118815"
     inkscape:window-x="65"
     inkscape:window-y="24"
     inkscape:window-maximized="1"
     inkscape:current-layer="Capa_1" /><path
     style="fill:#000000;fill-opacity:1;stroke:none;stroke-width:0;stroke-miterlimit:4;stroke-dasharray:none;stroke-opacity:1"
     d="M 15 0 C 6.7157262 1.1045695e-06 1.1045695e-06 6.7157262 0 15 C 1.1045695e-06 23.284274 6.7157262 29.999999 15 30 C 23.284274 29.999999 29.999999 23.284274 30 15 C 29.999999 6.7157262 23.284274 1.1045695e-06 15 0 z M 8.96875 8.3632812 L 8.9707031 8.3632812 C 10.421229 8.3666744 13.058749 8.7011611 14.431641 10.912109 C 14.487511 11.002204 14.517578 11.112621 14.517578 11.228516 L 14.517578 20.984375 C 12.844858 19.233904 10.419906 18.933138 8.9726562 18.929688 C 8.6293602 18.92881 8.3496094 18.650486 8.3496094 18.308594 L 8.3496094 8.984375 C 8.3496094 8.8175242 8.4152024 8.6606769 8.5332031 8.5429688 C 8.6499168 8.4265476 8.8044148 8.3632812 8.96875 8.3632812 z M 21.029297 8.3632812 L 21.03125 8.3632812 C 21.19541 8.3632813 21.350083 8.4265476 21.466797 8.5429688 C 21.584798 8.6606769 21.650391 8.8175242 21.650391 8.984375 L 21.650391 18.308594 C 21.650391 18.650427 21.370581 18.92881 21.027344 18.929688 C 19.580094 18.933138 17.155142 19.233904 15.482422 20.984375 L 15.482422 11.228516 C 15.482422 11.112621 15.512489 11.002204 15.568359 10.912109 C 16.94131 8.7011611 19.57883 8.3667329 21.029297 8.3632812 z M 6.9335938 10.513672 L 7.3847656 10.513672 L 7.3847656 18.308594 C 7.3847656 19.181518 8.0964915 19.892425 8.9707031 19.894531 C 10.198273 19.897456 12.222807 20.137454 13.65625 21.494141 C 11.177123 20.887113 8.5617542 21.2816 7.0722656 21.621094 C 6.8859918 21.663567 6.6957654 21.620656 6.546875 21.501953 C 6.3983942 21.383484 6.3125 21.20576 6.3125 21.015625 L 6.3125 11.134766 C 6.3125 10.791996 6.5908827 10.513672 6.9335938 10.513672 z M 22.615234 10.513672 L 23.066406 10.513672 C 23.409176 10.513672 23.687559 10.791996 23.6875 11.134766 L 23.6875 21.015625 C 23.6875 21.205702 23.601606 21.383484 23.453125 21.501953 C 23.304118 21.620714 23.113716 21.66345 22.927734 21.621094 C 21.438246 21.281659 18.822994 20.887113 16.34375 21.494141 C 17.777251 20.137396 19.801727 19.897456 21.029297 19.894531 C 21.903567 19.892367 22.615234 19.181518 22.615234 18.308594 L 22.615234 10.513672 z "
     id="path4264" /><g
     id="g4590"
     transform="matrix(0.74690725,0,0,0.74690725,4.7191952,4.7195686)"
     style="fill:#ffffff"><g
       id="g4550"
       style="fill:#ffffff" /><g
       id="g4554"
       style="fill:#ffffff" /><g
       id="g4556"
       style="fill:#ffffff" /><g
       id="g4558"
       style="fill:#ffffff" /><g
       id="g4560"
       style="fill:#ffffff" /><g
       id="g4562"
       style="fill:#ffffff" /><g
       id="g4564"
       style="fill:#ffffff" /><g
       id="g4566"
       style="fill:#ffffff" /><g
       id="g4568"
       style="fill:#ffffff" /><g
       id="g4570"
       style="fill:#ffffff" /><g
       id="g4572"
       style="fill:#ffffff" /><g
       id="g4574"
       style="fill:#ffffff" /><g
       id="g4576"
       style="fill:#ffffff" /><g
       id="g4578"
       style="fill:#ffffff" /><g
       id="g4580"
       style="fill:#ffffff" /><g
       id="g4582"
       style="fill:#ffffff" /></g><g
     id="g4220"
     transform="matrix(0.02537669,0,0,0.02537669,4.8445142,4.8444517)"
     style="fill:#ffffff" /><g
     id="g4228"
     transform="translate(0.97978878,-691.60692)" /><g
     id="g4230"
     transform="translate(0.97978878,-691.60692)" /><g
     id="g4232"
     transform="translate(0.97978878,-691.60692)" /><g
     id="g4234"
     transform="translate(0.97978878,-691.60692)" /><g
     id="g4236"
     transform="translate(0.97978878,-691.60692)" /><g
     id="g4238"
     transform="translate(0.97978878,-691.60692)" /><g
     id="g4240"
     transform="translate(0.97978878,-691.60692)" /><g
     id="g4242"
     transform="translate(0.97978878,-691.60692)" /><g
     id="g4244"
     transform="translate(0.97978878,-691.60692)" /><g
     id="g4246"
     transform="translate(0.97978878,-691.60692)" /><g
     id="g4248"
     transform="translate(0.97978878,-691.60692)" /><g
     id="g4250"
     transform="translate(0.97978878,-691.60692)" /><g
     id="g4252"
     transform="translate(0.97978878,-691.60692)" /><g
     id="g4254"
     transform="translate(0.97978878,-691.60692)" /><g
     id="g4256"
     transform="translate(0.97978878,-691.60692)" /><g
     id="g4445"
     transform="matrix(0.04098043,0,0,0.04098043,5.3768167,-13.448812)"
     style="fill:#00ff00"><g
       id="g4397"
       transform="translate(0,-540.36)"
       style="fill:#00ff00"><g
         id="g4399"
         style="fill:#00ff00"><g
           id="g4401"
           style="fill:#00ff00" /></g></g><g
       id="g4409"
       style="fill:#00ff00" /><g
       id="g4411"
       style="fill:#00ff00" /><g
       id="g4413"
       style="fill:#00ff00" /><g
       id="g4415"
       style="fill:#00ff00" /><g
       id="g4417"
       style="fill:#00ff00" /><g
       id="g4419"
       style="fill:#00ff00" /><g
       id="g4421"
       style="fill:#00ff00" /><g
       id="g4423"
       style="fill:#00ff00" /><g
       id="g4425"
       style="fill:#00ff00" /><g
       id="g4427"
       style="fill:#00ff00" /><g
       id="g4429"
       style="fill:#00ff00" /><g
       id="g4431"
       style="fill:#00ff00" /><g
       id="g4433"
       style="fill:#00ff00" /><g
       id="g4435"
       style="fill:#00ff00" /><g
       id="g4437"
       style="fill:#00ff00" /></g><g
     id="g4904"
     transform="matrix(0.03573787,0,0,0.03573787,3.6470568,4.1013519)"
     style="fill:#ffffff"><g
       id="g4856"
       transform="translate(0,-540.36)"
       style="fill:#ffffff"><g
         id="g4858"
         style="fill:#ffffff"><g
           id="g4860"
           style="fill:#ffffff" /></g></g><g
       id="g4868"
       style="fill:#ffffff" /><g
       id="g4870"
       style="fill:#ffffff" /><g
       id="g4872"
       style="fill:#ffffff" /><g
       id="g4874"
       style="fill:#ffffff" /><g
       id="g4876"
       style="fill:#ffffff" /><g
       id="g4878"
       style="fill:#ffffff" /><g
       id="g4880"
       style="fill:#ffffff" /><g
       id="g4882"
       style="fill:#ffffff" /><g
       id="g4884"
       style="fill:#ffffff" /><g
       id="g4886"
       style="fill:#ffffff" /><g
       id="g4888"
       style="fill:#ffffff" /><g
       id="g4890"
       style="fill:#ffffff" /><g
       id="g4892"
       style="fill:#ffffff" /><g
       id="g4894"
       style="fill:#ffffff" /><g
       id="g4896"
       style="fill:#ffffff" /></g><g
     id="g5126"
     transform="matrix(0.05850308,0,0,0.05850308,6.3123219,6.3122935)"
     style="fill:#aa0000"><g
       id="g5076"
       style="fill:#aa0000"><g
         id="g5078"
         style="fill:#aa0000"><g
           id="g5080"
           style="fill:#aa0000" /></g></g><g
       id="g5090"
       style="fill:#aa0000" /><g
       id="g5092"
       style="fill:#aa0000" /><g
       id="g5094"
       style="fill:#aa0000" /><g
       id="g5096"
       style="fill:#aa0000" /><g
       id="g5098"
       style="fill:#aa0000" /><g
       id="g5100"
       style="fill:#aa0000" /><g
       id="g5102"
       style="fill:#aa0000" /><g
       id="g5104"
       style="fill:#aa0000" /><g
       id="g5106"
       style="fill:#aa0000" /><g
       id="g5108"
       style="fill:#aa0000" /><g
       id="g5110"
       style="fill:#aa0000" /><g
       id="g5112"
       style="fill:#aa0000" /><g
       id="g5114"
       style="fill:#aa0000" /><g
       id="g5116"
       style="fill:#aa0000" /><g
       id="g5118"
       style="fill:#aa0000" /></g></svg>
