<?xml version="1.0" encoding="UTF-8" standalone="no"?>
<!-- Generator: Adobe Illustrator 16.0.0, SVG Export Plug-In . SVG Version: 6.00 Build 0)  -->

<svg
   xmlns:dc="http://purl.org/dc/elements/1.1/"
   xmlns:cc="http://creativecommons.org/ns#"
   xmlns:rdf="http://www.w3.org/1999/02/22-rdf-syntax-ns#"
   xmlns:svg="http://www.w3.org/2000/svg"
   xmlns="http://www.w3.org/2000/svg"
   xmlns:sodipodi="http://sodipodi.sourceforge.net/DTD/sodipodi-0.dtd"
   xmlns:inkscape="http://www.inkscape.org/namespaces/inkscape"
   version="1.1"
   id="Capa_1"
   x="0px"
   y="0px"
   width="30"
   height="30"
   viewBox="0 0 29.999999 29.999999"
   xml:space="preserve"
   inkscape:version="0.91 r13725"
   sodipodi:docname="studies.svg"><metadata
     id="metadata4262"><rdf:RDF><cc:Work
         rdf:about=""><dc:format>image/svg+xml</dc:format><dc:type
           rdf:resource="http://purl.org/dc/dcmitype/StillImage" /><dc:title></dc:title></cc:Work></rdf:RDF></metadata><defs
     id="defs4260" /><sodipodi:namedview
     pagecolor="#ffffff"
     bordercolor="#666666"
     borderopacity="1"
     objecttolerance="10"
     gridtolerance="10"
     guidetolerance="10"
     inkscape:pageopacity="0"
     inkscape:pageshadow="2"
     inkscape:window-width="1855"
     inkscape:window-height="1056"
     id="namedview4258"
     showgrid="false"
     fit-margin-top="0"
     fit-margin-left="0"
     fit-margin-right="0"
     fit-margin-bottom="0"
     showguides="false"
     inkscape:zoom="18.371296"
     inkscape:cx="26.61549"
     inkscape:cy="14.685629"
     inkscape:window-x="65"
     inkscape:window-y="24"
     inkscape:window-maximized="1"
     inkscape:current-layer="Capa_1" /><path
     style="fill:#000000;fill-opacity:1;stroke:none;stroke-width:0;stroke-miterlimit:4;stroke-dasharray:none;stroke-opacity:1"
     d="M 15 0 C 6.7157282 1.1045693e-06 1.1045693e-06 6.7157282 0 15 C 1.1045693e-06 23.284272 6.7157282 29.999999 15 30 C 23.284272 29.999999 29.999999 23.284272 30 15 C 29.999999 6.7157282 23.284272 1.1045693e-06 15 0 z M 15.279297 7.7363281 L 25.28125 10.888672 L 15.251953 16.994141 L 5.25 10.933594 L 15.279297 7.7363281 z M 5.3183594 11.470703 L 5.875 18.111328 L 5.3183594 20.101562 L 4.71875 18.111328 L 5.3183594 11.470703 z M 8.8183594 13.798828 L 15.201172 17.679688 L 21.708984 13.798828 L 22.240234 16.869141 C 22.305215 17.240354 22.347656 17.364754 22.347656 17.490234 C 22.347656 18.661385 16.37039 22.263672 14.732422 22.263672 C 13.095948 22.263672 8.1816406 18.660638 8.1816406 17.490234 C 8.1816406 17.356538 8.2245967 17.22463 8.3007812 17.097656 C 8.2955529 17.102885 8.2893501 17.106847 8.2871094 17.111328 L 8.8183594 13.798828 z "
     id="path4264" /><g
     id="g4220"
     transform="matrix(0.02537669,0,0,0.02537669,4.8445142,4.8444517)"
     style="fill:#ffffff" /><g
     id="g4228"
     transform="translate(0.97978878,-691.60692)" /><g
     id="g4230"
     transform="translate(0.97978878,-691.60692)" /><g
     id="g4232"
     transform="translate(0.97978878,-691.60692)" /><g
     id="g4234"
     transform="translate(0.97978878,-691.60692)" /><g
     id="g4236"
     transform="translate(0.97978878,-691.60692)" /><g
     id="g4238"
     transform="translate(0.97978878,-691.60692)" /><g
     id="g4240"
     transform="translate(0.97978878,-691.60692)" /><g
     id="g4242"
     transform="translate(0.97978878,-691.60692)" /><g
     id="g4244"
     transform="translate(0.97978878,-691.60692)" /><g
     id="g4246"
     transform="translate(0.97978878,-691.60692)" /><g
     id="g4248"
     transform="translate(0.97978878,-691.60692)" /><g
     id="g4250"
     transform="translate(0.97978878,-691.60692)" /><g
     id="g4252"
     transform="translate(0.97978878,-691.60692)" /><g
     id="g4254"
     transform="translate(0.97978878,-691.60692)" /><g
     id="g4256"
     transform="translate(0.97978878,-691.60692)" /><g
     id="g4590"
     transform="matrix(0.74690725,0,0,0.74690725,4.7191952,4.7195686)"
     style="fill:#ffffff"><g
       id="g4550"
       style="fill:#ffffff" /><g
       id="g4554"
       style="fill:#ffffff" /><g
       id="g4556"
       style="fill:#ffffff" /><g
       id="g4558"
       style="fill:#ffffff" /><g
       id="g4560"
       style="fill:#ffffff" /><g
       id="g4562"
       style="fill:#ffffff" /><g
       id="g4564"
       style="fill:#ffffff" /><g
       id="g4566"
       style="fill:#ffffff" /><g
       id="g4568"
       style="fill:#ffffff" /><g
       id="g4570"
       style="fill:#ffffff" /><g
       id="g4572"
       style="fill:#ffffff" /><g
       id="g4574"
       style="fill:#ffffff" /><g
       id="g4576"
       style="fill:#ffffff" /><g
       id="g4578"
       style="fill:#ffffff" /><g
       id="g4580"
       style="fill:#ffffff" /><g
       id="g4582"
       style="fill:#ffffff" /></g></svg>
