<?xml version="1.0" encoding="UTF-8" standalone="no"?>
<!-- Generator: Adobe Illustrator 16.0.0, SVG Export Plug-In . SVG Version: 6.00 Build 0)  -->

<svg
   xmlns:dc="http://purl.org/dc/elements/1.1/"
   xmlns:cc="http://creativecommons.org/ns#"
   xmlns:rdf="http://www.w3.org/1999/02/22-rdf-syntax-ns#"
   xmlns:svg="http://www.w3.org/2000/svg"
   xmlns="http://www.w3.org/2000/svg"
   xmlns:sodipodi="http://sodipodi.sourceforge.net/DTD/sodipodi-0.dtd"
   xmlns:inkscape="http://www.inkscape.org/namespaces/inkscape"
   version="1.1"
   id="Capa_1"
   x="0px"
   y="0px"
   width="30"
   height="30"
   viewBox="0 0 29.999999 29.999999"
   xml:space="preserve"
   inkscape:version="0.91 r13725"
   sodipodi:docname="work.svg"><metadata
     id="metadata4262"><rdf:RDF><cc:Work
         rdf:about=""><dc:format>image/svg+xml</dc:format><dc:type
           rdf:resource="http://purl.org/dc/dcmitype/StillImage" /><dc:title></dc:title></cc:Work></rdf:RDF></metadata><defs
     id="defs4260" /><sodipodi:namedview
     pagecolor="#ffffff"
     bordercolor="#666666"
     borderopacity="1"
     objecttolerance="10"
     gridtolerance="10"
     guidetolerance="10"
     inkscape:pageopacity="0"
     inkscape:pageshadow="2"
     inkscape:window-width="1855"
     inkscape:window-height="1056"
     id="namedview4258"
     showgrid="false"
     fit-margin-top="0"
     fit-margin-left="0"
     fit-margin-right="0"
     fit-margin-bottom="0"
     showguides="false"
     inkscape:zoom="18.371296"
     inkscape:cx="28.775793"
     inkscape:cy="18.629662"
     inkscape:window-x="65"
     inkscape:window-y="24"
     inkscape:window-maximized="1"
     inkscape:current-layer="Capa_1" /><path
     style="fill:#000000;fill-opacity:1;stroke:none;stroke-width:0;stroke-miterlimit:4;stroke-dasharray:none;stroke-opacity:1"
     d="M 15 0 A 15.000002 15.000002 0 0 0 0 15 A 15.000002 15.000002 0 0 0 15 30 A 15.000002 15.000002 0 0 0 30 15 A 15.000002 15.000002 0 0 0 15 0 z M 14.939453 6.9589844 C 16.846004 6.9589844 18.392578 8.5035547 18.392578 10.410156 C 18.392578 12.316606 16.845979 13.861328 14.939453 13.861328 C 13.032902 13.861328 11.488281 12.316606 11.488281 10.410156 C 11.488281 8.5035547 13.032902 6.9589844 14.939453 6.9589844 z M 11.667969 14.28125 L 11.728516 14.28125 L 11.728516 16.214844 L 11.128906 16.214844 C 10.735847 16.214844 10.416016 16.534776 10.416016 16.927734 L 10.416016 19.96875 C 10.032092 20.208712 9.7773438 20.634978 9.7773438 21.121094 C 9.7773438 21.584345 10.009226 21.993168 10.363281 22.238281 L 11.111328 22.238281 C 10.891236 22.184787 10.728516 21.98646 10.728516 21.75 L 10.728516 17.048828 C 10.728516 16.771182 10.952898 16.544922 11.230469 16.544922 L 18.769531 16.544922 C 19.047102 16.544922 19.271484 16.771232 19.271484 17.048828 L 19.271484 21.75 C 19.271484 21.986511 19.108789 22.184838 18.888672 22.238281 L 19.636719 22.238281 C 19.990749 21.993168 20.222656 21.584396 20.222656 21.121094 C 20.222656 20.634978 19.967908 20.208737 19.583984 19.96875 L 19.583984 16.927734 C 19.583984 16.534751 19.264128 16.214844 18.871094 16.214844 L 18.271484 16.214844 L 18.271484 14.283203 C 18.666447 14.282239 19.059381 14.447652 19.335938 14.771484 L 23.787109 19.984375 C 23.789622 19.987268 23.792435 19.989319 23.794922 19.992188 C 23.803728 20.002795 23.811786 20.014606 23.820312 20.025391 C 23.826226 20.032775 23.832232 20.03949 23.837891 20.046875 C 23.846163 20.057888 23.855313 20.068912 23.863281 20.080078 C 23.868712 20.087869 23.873552 20.095598 23.878906 20.103516 C 23.886342 20.114301 23.893311 20.125578 23.900391 20.136719 C 23.905796 20.145118 23.912665 20.153659 23.917969 20.162109 C 23.924313 20.172717 23.929406 20.182701 23.935547 20.193359 C 23.940851 20.202647 23.946071 20.211415 23.951172 20.220703 C 23.956882 20.230955 23.963294 20.241574 23.96875 20.251953 C 23.973775 20.261825 23.977575 20.273306 23.982422 20.283203 C 23.987472 20.293684 23.993149 20.30377 23.998047 20.314453 C 24.002539 20.324452 24.007455 20.333726 24.011719 20.34375 C 24.016464 20.354916 24.020975 20.367741 24.025391 20.378906 C 24.029299 20.388752 24.03343 20.398408 24.037109 20.408203 C 24.041576 20.420206 24.044819 20.431229 24.048828 20.443359 C 24.052 20.452723 24.055675 20.461263 24.058594 20.470703 C 24.062527 20.483112 24.064781 20.497179 24.068359 20.509766 C 24.070922 20.519079 24.073685 20.527847 24.076172 20.537109 C 24.079344 20.549417 24.083018 20.561759 24.085938 20.574219 C 24.088221 20.583989 24.089767 20.593746 24.091797 20.603516 C 24.094335 20.615265 24.097478 20.626821 24.099609 20.638672 C 24.101665 20.649406 24.103845 20.660988 24.105469 20.671875 C 24.10722 20.682787 24.107878 20.693963 24.109375 20.705078 C 24.110974 20.716878 24.111987 20.728333 24.113281 20.740234 C 24.114322 20.750537 24.116349 20.761105 24.117188 20.771484 C 24.118329 20.784274 24.118455 20.797757 24.119141 20.810547 C 24.11975 20.820495 24.120789 20.829769 24.121094 20.839844 C 24.121576 20.852938 24.120992 20.865736 24.121094 20.878906 L 24.121094 20.890625 C 24.121094 20.897172 24.121195 20.903584 24.121094 20.910156 C 24.12084 20.922261 24.121601 20.93511 24.121094 20.947266 C 24.120612 20.95937 24.119927 20.970419 24.119141 20.982422 C 24.118379 20.992446 24.118076 21.00375 24.117188 21.013672 C 24.115943 21.027654 24.112901 21.040805 24.111328 21.054688 C 24.110338 21.062351 24.110415 21.07041 24.109375 21.078125 C 24.107243 21.093706 24.104203 21.109546 24.101562 21.125 C 24.100522 21.130887 24.10065 21.136665 24.099609 21.142578 C 24.096488 21.159377 24.091596 21.176788 24.087891 21.193359 C 24.08685 21.198156 24.087029 21.202311 24.085938 21.207031 C 24.081927 21.224262 24.076935 21.240734 24.072266 21.257812 C 24.071048 21.262432 24.069654 21.26684 24.068359 21.271484 C 24.063487 21.288334 24.058089 21.305745 24.052734 21.322266 C 24.050933 21.327772 24.048702 21.332359 24.046875 21.337891 C 24.041622 21.353396 24.037061 21.36954 24.03125 21.384766 C 24.028585 21.391871 24.026254 21.399043 24.023438 21.40625 C 24.018184 21.419421 24.011569 21.43232 24.005859 21.445312 C 24.001901 21.454601 23.998455 21.463521 23.994141 21.472656 C 23.98937 21.483391 23.983616 21.493426 23.978516 21.503906 C 23.972907 21.515402 23.966825 21.527795 23.960938 21.539062 C 23.956673 21.547108 23.953584 21.554582 23.949219 21.5625 C 23.941986 21.575467 23.93342 21.588798 23.925781 21.601562 C 23.922102 21.607806 23.919721 21.613076 23.916016 21.619141 C 23.907591 21.632793 23.897604 21.64658 23.888672 21.660156 C 23.885271 21.665282 23.882383 21.670807 23.878906 21.675781 C 23.869695 21.689358 23.861283 21.70355 23.851562 21.716797 C 23.847807 21.721796 23.8436 21.72552 23.839844 21.730469 C 23.830378 21.74303 23.820571 21.755296 23.810547 21.767578 C 23.805979 21.773237 23.801595 21.779624 23.796875 21.785156 C 23.787613 21.796347 23.777348 21.807447 23.767578 21.818359 C 23.761615 21.825135 23.756141 21.831267 23.75 21.837891 C 23.741321 21.847255 23.731665 21.856048 23.722656 21.865234 C 23.714891 21.873279 23.707238 21.880881 23.699219 21.888672 C 23.691428 21.896285 23.683699 21.904725 23.675781 21.912109 C 23.66596 21.921194 23.656635 21.930647 23.646484 21.939453 C 23.64217 21.943234 23.637178 21.947365 23.632812 21.951172 C 23.630097 21.953456 23.627639 21.954823 23.625 21.957031 C 23.613784 21.966421 23.601339 21.97529 23.589844 21.984375 C 23.583043 21.989628 23.577064 21.994925 23.570312 22 C 23.558715 22.008958 23.547058 22.016889 23.535156 22.025391 C 23.528051 22.03039 23.520853 22.035991 23.513672 22.041016 C 23.502227 22.048781 23.490164 22.056967 23.478516 22.064453 C 23.470674 22.069478 23.46297 22.07518 23.455078 22.080078 C 23.443938 22.086803 23.433218 22.093113 23.421875 22.099609 C 23.413298 22.104482 23.405163 22.108587 23.396484 22.113281 C 23.385522 22.119422 23.374396 22.12515 23.363281 22.130859 C 23.35407 22.135681 23.345149 22.14004 23.335938 22.144531 C 23.324796 22.149911 23.311972 22.155081 23.300781 22.160156 C 23.291316 22.164343 23.282852 22.169717 23.273438 22.173828 C 23.261789 22.178726 23.250132 22.182907 23.238281 22.1875 C 23.229019 22.191256 23.218247 22.195691 23.208984 22.199219 C 23.196575 22.203736 23.18431 22.206699 23.171875 22.210938 C 23.162866 22.213983 23.155468 22.217937 23.146484 22.220703 C 23.133796 22.224713 23.120262 22.228768 23.107422 22.232422 C 23.099174 22.234757 23.090355 22.236023 23.082031 22.238281 L 25.15625 22.238281 L 25.15625 23.041016 L 4.84375 23.041016 L 4.84375 22.238281 L 6.9179688 22.238281 C 6.9096451 22.236023 6.9008256 22.234807 6.8925781 22.232422 C 6.8797375 22.228768 6.8661025 22.224662 6.8535156 22.220703 C 6.8444308 22.217937 6.8371083 22.213983 6.828125 22.210938 C 6.8156397 22.206699 6.8033487 22.203736 6.7910156 22.199219 C 6.7817278 22.195691 6.7710066 22.191205 6.7617188 22.1875 C 6.7499185 22.182907 6.738185 22.17865 6.7265625 22.173828 C 6.7170716 22.169717 6.7086589 22.164343 6.6992188 22.160156 C 6.687926 22.155081 6.6751521 22.151864 6.6640625 22.146484 C 6.6547493 22.141993 6.6459051 22.13563 6.6367188 22.130859 C 6.6256037 22.12515 6.6144784 22.119372 6.6035156 22.113281 C 6.5948368 22.108587 6.5867531 22.104482 6.578125 22.099609 C 6.5668324 22.093113 6.5560115 22.086854 6.5449219 22.080078 C 6.5370043 22.07513 6.529275 22.069427 6.5214844 22.064453 C 6.5097857 22.056992 6.4977476 22.048806 6.4863281 22.041016 C 6.4790704 22.03594 6.4719746 22.032292 6.4648438 22.027344 C 6.4530181 22.018843 6.4412339 22.008958 6.4296875 22 C 6.4229119 21.994925 6.416805 21.989628 6.4101562 21.984375 C 6.3985845 21.975239 6.3861911 21.966421 6.375 21.957031 C 6.3723101 21.954823 6.3699536 21.953456 6.3671875 21.951172 C 6.3628481 21.947365 6.357855 21.943234 6.3535156 21.939453 C 6.3433396 21.930673 6.3340903 21.921169 6.3242188 21.912109 C 6.3161996 21.904725 6.308572 21.896285 6.3007812 21.888672 C 6.2927368 21.880932 6.2852359 21.873279 6.2773438 21.865234 C 6.2683603 21.856048 6.2586788 21.847255 6.25 21.837891 C 6.2438842 21.831267 6.2384615 21.825135 6.2324219 21.818359 C 6.222728 21.807447 6.2124636 21.796297 6.203125 21.785156 C 6.1984811 21.779624 6.1940463 21.773288 6.1894531 21.767578 C 6.179404 21.755245 6.1696472 21.74303 6.1601562 21.730469 C 6.1564259 21.72552 6.1521425 21.721796 6.1484375 21.716797 C 6.1386928 21.70355 6.1303562 21.689358 6.1210938 21.675781 C 6.1176678 21.670757 6.1147032 21.665232 6.1113281 21.660156 C 6.1023955 21.64658 6.0923587 21.632793 6.0839844 21.619141 C 6.0802286 21.613025 6.077873 21.607755 6.0742188 21.601562 C 6.066631 21.588849 6.0579122 21.575518 6.0507812 21.5625 C 6.0464165 21.554582 6.0433004 21.547108 6.0390625 21.539062 C 6.0331244 21.527744 6.0270926 21.515402 6.0214844 21.503906 C 6.0163583 21.493426 6.0107571 21.483391 6.0058594 21.472656 C 6.0015961 21.46347 5.9982263 21.454601 5.9941406 21.445312 C 5.988507 21.43232 5.9818409 21.419421 5.9765625 21.40625 C 5.9737711 21.399043 5.9714399 21.39182 5.96875 21.384766 C 5.9629641 21.36954 5.9584287 21.353345 5.953125 21.337891 C 5.9513486 21.332384 5.9490674 21.327798 5.9472656 21.322266 C 5.941835 21.305695 5.9363861 21.288334 5.9316406 21.271484 C 5.9303464 21.26684 5.9290032 21.262432 5.9277344 21.257812 C 5.9231158 21.240734 5.918072 21.224313 5.9140625 21.207031 C 5.9130221 21.202362 5.9131498 21.198156 5.9121094 21.193359 C 5.9084044 21.176763 5.9034866 21.159327 5.9003906 21.142578 C 5.8993248 21.136665 5.8994272 21.130887 5.8984375 21.125 C 5.8958491 21.109546 5.8927566 21.093706 5.890625 21.078125 C 5.8896099 21.07041 5.8896362 21.062351 5.8886719 21.054688 C 5.8870731 21.040805 5.8860091 21.027654 5.8847656 21.013672 C 5.8839282 21.00375 5.8814938 20.994399 5.8808594 20.984375 C 5.8800473 20.972372 5.8794139 20.95937 5.8789062 20.947266 C 5.8784495 20.935059 5.8791094 20.924214 5.8789062 20.912109 C 5.8788301 20.905588 5.8789062 20.897223 5.8789062 20.890625 C 5.8789063 20.886463 5.8788555 20.882916 5.8789062 20.878906 C 5.8789571 20.865736 5.8784495 20.852938 5.8789062 20.839844 C 5.8792616 20.829744 5.8803265 20.82052 5.8808594 20.810547 C 5.8816207 20.797757 5.8817721 20.784274 5.8828125 20.771484 C 5.8837007 20.761055 5.8855767 20.750487 5.8867188 20.740234 C 5.8879622 20.728383 5.8890516 20.716929 5.890625 20.705078 C 5.8920207 20.693938 5.8928818 20.682787 5.8945312 20.671875 C 5.8962316 20.661039 5.8983859 20.649457 5.9003906 20.638672 C 5.9025223 20.626872 5.9057416 20.615316 5.9082031 20.603516 C 5.9102333 20.593796 5.9117786 20.58404 5.9140625 20.574219 C 5.9169301 20.561708 5.9206307 20.549366 5.9238281 20.537109 C 5.9262389 20.527822 5.9290014 20.519028 5.9316406 20.509766 C 5.9351934 20.497179 5.9375236 20.485065 5.9414062 20.472656 C 5.9444262 20.463216 5.9479998 20.452723 5.9511719 20.443359 C 5.9552575 20.431229 5.9604535 20.420206 5.9648438 20.408203 C 5.9684726 20.398433 5.9707775 20.388803 5.9746094 20.378906 C 5.979101 20.367741 5.9835358 20.354916 5.9882812 20.34375 C 5.99257 20.333726 5.9973599 20.324452 6.0019531 20.314453 C 6.0068001 20.30377 6.0125535 20.293684 6.0175781 20.283203 C 6.0224251 20.273306 6.0281532 20.263778 6.0332031 20.253906 C 6.038583 20.243527 6.0431945 20.232908 6.0488281 20.222656 C 6.0539035 20.213368 6.059124 20.202647 6.0644531 20.193359 C 6.0705943 20.182701 6.0775894 20.172717 6.0839844 20.162109 C 6.089212 20.153659 6.0941788 20.145118 6.0996094 20.136719 C 6.1066895 20.125528 6.1136837 20.114301 6.1210938 20.103516 C 6.1264229 20.095598 6.1311612 20.087869 6.1367188 20.080078 C 6.1446617 20.068862 6.1538112 20.057888 6.1621094 20.046875 C 6.1677684 20.03949 6.1739016 20.032775 6.1796875 20.025391 C 6.1882902 20.014606 6.196247 20.004748 6.2050781 19.994141 C 6.2075143 19.991222 6.2104291 19.987217 6.2128906 19.984375 L 10.664062 14.771484 C 10.926535 14.464147 11.293561 14.298404 11.667969 14.283203 L 11.667969 14.28125 z M 15 14.503906 L 15.765625 15.267578 L 15.521484 15.511719 L 15.521484 16.242188 L 14.478516 16.242188 L 14.478516 15.511719 L 14.234375 15.267578 L 15 14.503906 z "
     id="path4264" /><g
     id="g4220"
     transform="matrix(0.02537669,0,0,0.02537669,4.8445142,4.8444517)"
     style="fill:#ffffff" /><g
     id="g4228"
     transform="translate(0.97978878,-691.60692)" /><g
     id="g4230"
     transform="translate(0.97978878,-691.60692)" /><g
     id="g4232"
     transform="translate(0.97978878,-691.60692)" /><g
     id="g4234"
     transform="translate(0.97978878,-691.60692)" /><g
     id="g4236"
     transform="translate(0.97978878,-691.60692)" /><g
     id="g4238"
     transform="translate(0.97978878,-691.60692)" /><g
     id="g4240"
     transform="translate(0.97978878,-691.60692)" /><g
     id="g4242"
     transform="translate(0.97978878,-691.60692)" /><g
     id="g4244"
     transform="translate(0.97978878,-691.60692)" /><g
     id="g4246"
     transform="translate(0.97978878,-691.60692)" /><g
     id="g4248"
     transform="translate(0.97978878,-691.60692)" /><g
     id="g4250"
     transform="translate(0.97978878,-691.60692)" /><g
     id="g4252"
     transform="translate(0.97978878,-691.60692)" /><g
     id="g4254"
     transform="translate(0.97978878,-691.60692)" /><g
     id="g4256"
     transform="translate(0.97978878,-691.60692)" /></svg>
